<?xml version="1.0" standalone="no"?><svg xmlns="http://www.w3.org/2000/svg" viewBox="0 0 1440 320"><path fill="#0581b3" fill-opacity="1" d="M0,224L24,208C48,192,96,160,144,128C192,96,240,64,288,64C336,64,384,96,432,117.3C480,139,528,149,576,144C624,139,672,117,720,122.7C768,128,816,160,864,176C912,192,960,192,1008,181.3C1056,171,1104,149,1152,154.7C1200,160,1248,192,1296,213.3C1344,235,1392,245,1416,250.7L1440,256L1440,0L1416,0C1392,0,1344,0,1296,0C1248,0,1200,0,1152,0C1104,0,1056,0,1008,0C960,0,912,0,864,0C816,0,768,0,720,0C672,0,624,0,576,0C528,0,480,0,432,0C384,0,336,0,288,0C240,0,192,0,144,0C96,0,48,0,24,0L0,0Z"></path></svg>