<?xml version="1.0" standalone="no"?><svg xmlns="http://www.w3.org/2000/svg" viewBox="0 0 1440 320"><path fill="#eeeeee" fill-opacity="1" d="M0,96L10.4,80C20.9,64,42,32,63,64C83.5,96,104,192,125,229.3C146.1,267,167,245,188,245.3C208.7,245,230,267,250,272C271.3,277,292,267,313,266.7C333.9,267,355,277,376,272C396.5,267,417,245,438,245.3C459.1,245,480,267,501,266.7C521.7,267,543,245,563,250.7C584.3,256,605,288,626,282.7C647,277,668,235,689,218.7C709.6,203,730,213,751,202.7C772.2,192,793,160,814,138.7C834.8,117,856,107,877,128C897.4,149,918,203,939,240C960,277,981,299,1002,272C1022.6,245,1043,171,1064,160C1085.2,149,1106,203,1127,234.7C1147.8,267,1169,277,1190,266.7C1210.4,256,1231,224,1252,208C1273,192,1294,192,1315,197.3C1335.7,203,1357,213,1377,186.7C1398.3,160,1419,96,1430,64L1440,32L1440,320L1429.6,320C1419.1,320,1398,320,1377,320C1356.5,320,1336,320,1315,320C1293.9,320,1273,320,1252,320C1231.3,320,1210,320,1190,320C1168.7,320,1148,320,1127,320C1106.1,320,1085,320,1064,320C1043.5,320,1023,320,1002,320C980.9,320,960,320,939,320C918.3,320,897,320,877,320C855.7,320,835,320,814,320C793,320,772,320,751,320C730.4,320,710,320,689,320C667.8,320,647,320,626,320C605.2,320,584,320,563,320C542.6,320,522,320,501,320C480,320,459,320,438,320C417.4,320,397,320,376,320C354.8,320,334,320,313,320C292.2,320,271,320,250,320C229.6,320,209,320,188,320C167,320,146,320,125,320C104.3,320,83,320,63,320C41.7,320,21,320,10,320L0,320Z"></path></svg>